<mxfile host="app.diagrams.net" modified="2023-05-22T03:43:58.306Z" agent="Mozilla/5.0 (Windows NT 10.0; Win64; x64) AppleWebKit/537.36 (KHTML, like Gecko) Chrome/113.0.0.0 Safari/537.36" etag="SsQ7Df1N0Izup00tZ9Jd" version="21.3.2" type="github">
  <diagram id="C5RBs43oDa-KdzZeNtuy" name="Page-1">
    <mxGraphModel dx="954" dy="580" grid="1" gridSize="10" guides="1" tooltips="1" connect="1" arrows="1" fold="1" page="1" pageScale="1" pageWidth="827" pageHeight="1169" math="0" shadow="0">
      <root>
        <mxCell id="WIyWlLk6GJQsqaUBKTNV-0" />
        <mxCell id="WIyWlLk6GJQsqaUBKTNV-1" parent="WIyWlLk6GJQsqaUBKTNV-0" />
        <mxCell id="7oq_9oslYy9KRRlgHnhk-1" value="" style="edgeStyle=orthogonalEdgeStyle;rounded=0;orthogonalLoop=1;jettySize=auto;html=1;" edge="1" parent="WIyWlLk6GJQsqaUBKTNV-1" source="WIyWlLk6GJQsqaUBKTNV-3" target="7oq_9oslYy9KRRlgHnhk-0">
          <mxGeometry relative="1" as="geometry" />
        </mxCell>
        <mxCell id="WIyWlLk6GJQsqaUBKTNV-3" value="Ingresa la ciudad" style="rounded=1;whiteSpace=wrap;html=1;fontSize=12;glass=0;strokeWidth=1;shadow=0;fillColor=#dae8fc;strokeColor=#6c8ebf;" parent="WIyWlLk6GJQsqaUBKTNV-1" vertex="1">
          <mxGeometry x="160" y="70" width="120" height="40" as="geometry" />
        </mxCell>
        <mxCell id="7oq_9oslYy9KRRlgHnhk-5" style="edgeStyle=orthogonalEdgeStyle;rounded=0;orthogonalLoop=1;jettySize=auto;html=1;entryX=0;entryY=0.5;entryDx=0;entryDy=0;" edge="1" parent="WIyWlLk6GJQsqaUBKTNV-1" source="7oq_9oslYy9KRRlgHnhk-0" target="7oq_9oslYy9KRRlgHnhk-4">
          <mxGeometry relative="1" as="geometry" />
        </mxCell>
        <mxCell id="7oq_9oslYy9KRRlgHnhk-17" style="edgeStyle=orthogonalEdgeStyle;rounded=0;orthogonalLoop=1;jettySize=auto;html=1;exitX=0;exitY=0.5;exitDx=0;exitDy=0;entryX=1;entryY=0.5;entryDx=0;entryDy=0;" edge="1" parent="WIyWlLk6GJQsqaUBKTNV-1" source="7oq_9oslYy9KRRlgHnhk-0" target="7oq_9oslYy9KRRlgHnhk-14">
          <mxGeometry relative="1" as="geometry" />
        </mxCell>
        <mxCell id="7oq_9oslYy9KRRlgHnhk-0" value="Existe la ciudad en la DB?" style="rhombus;whiteSpace=wrap;html=1;rounded=1;glass=0;strokeWidth=1;shadow=0;" vertex="1" parent="WIyWlLk6GJQsqaUBKTNV-1">
          <mxGeometry x="180" y="180" width="80" height="80" as="geometry" />
        </mxCell>
        <mxCell id="7oq_9oslYy9KRRlgHnhk-4" value="Usar los datos de esa Ciudad" style="rounded=1;whiteSpace=wrap;html=1;fillColor=#d5e8d4;strokeColor=#82b366;" vertex="1" parent="WIyWlLk6GJQsqaUBKTNV-1">
          <mxGeometry x="294" y="190" width="120" height="60" as="geometry" />
        </mxCell>
        <mxCell id="7oq_9oslYy9KRRlgHnhk-6" value="Si" style="text;html=1;align=center;verticalAlign=middle;resizable=0;points=[];autosize=1;strokeColor=none;fillColor=none;" vertex="1" parent="WIyWlLk6GJQsqaUBKTNV-1">
          <mxGeometry x="260" y="198" width="30" height="30" as="geometry" />
        </mxCell>
        <mxCell id="7oq_9oslYy9KRRlgHnhk-31" value="" style="edgeStyle=orthogonalEdgeStyle;rounded=0;orthogonalLoop=1;jettySize=auto;html=1;" edge="1" parent="WIyWlLk6GJQsqaUBKTNV-1" source="7oq_9oslYy9KRRlgHnhk-7" target="7oq_9oslYy9KRRlgHnhk-30">
          <mxGeometry relative="1" as="geometry" />
        </mxCell>
        <mxCell id="7oq_9oslYy9KRRlgHnhk-7" value="Crear los datos de la ciuadad (name,lat,lon)" style="whiteSpace=wrap;html=1;rounded=1;glass=0;strokeWidth=1;shadow=0;" vertex="1" parent="WIyWlLk6GJQsqaUBKTNV-1">
          <mxGeometry x="174" y="300" width="120" height="60" as="geometry" />
        </mxCell>
        <mxCell id="7oq_9oslYy9KRRlgHnhk-24" style="edgeStyle=orthogonalEdgeStyle;rounded=0;orthogonalLoop=1;jettySize=auto;html=1;entryX=0.5;entryY=0;entryDx=0;entryDy=0;" edge="1" parent="WIyWlLk6GJQsqaUBKTNV-1" source="7oq_9oslYy9KRRlgHnhk-14" target="7oq_9oslYy9KRRlgHnhk-20">
          <mxGeometry relative="1" as="geometry" />
        </mxCell>
        <mxCell id="7oq_9oslYy9KRRlgHnhk-14" value="Buscar la ciudad en la API GEO" style="rounded=1;whiteSpace=wrap;html=1;" vertex="1" parent="WIyWlLk6GJQsqaUBKTNV-1">
          <mxGeometry x="50" y="190" width="100" height="60" as="geometry" />
        </mxCell>
        <mxCell id="7oq_9oslYy9KRRlgHnhk-18" value="No" style="text;html=1;align=center;verticalAlign=middle;resizable=0;points=[];autosize=1;strokeColor=none;fillColor=none;" vertex="1" parent="WIyWlLk6GJQsqaUBKTNV-1">
          <mxGeometry x="150" y="190" width="40" height="30" as="geometry" />
        </mxCell>
        <mxCell id="7oq_9oslYy9KRRlgHnhk-21" style="edgeStyle=orthogonalEdgeStyle;rounded=0;orthogonalLoop=1;jettySize=auto;html=1;entryX=0;entryY=0.5;entryDx=0;entryDy=0;" edge="1" parent="WIyWlLk6GJQsqaUBKTNV-1" source="7oq_9oslYy9KRRlgHnhk-20" target="7oq_9oslYy9KRRlgHnhk-7">
          <mxGeometry relative="1" as="geometry" />
        </mxCell>
        <mxCell id="7oq_9oslYy9KRRlgHnhk-25" style="edgeStyle=orthogonalEdgeStyle;rounded=0;orthogonalLoop=1;jettySize=auto;html=1;" edge="1" parent="WIyWlLk6GJQsqaUBKTNV-1" source="7oq_9oslYy9KRRlgHnhk-20">
          <mxGeometry relative="1" as="geometry">
            <mxPoint x="20" y="170" as="targetPoint" />
            <Array as="points">
              <mxPoint x="21" y="330" />
            </Array>
          </mxGeometry>
        </mxCell>
        <mxCell id="7oq_9oslYy9KRRlgHnhk-20" value="Return Empty?" style="rhombus;whiteSpace=wrap;html=1;" vertex="1" parent="WIyWlLk6GJQsqaUBKTNV-1">
          <mxGeometry x="60" y="290" width="80" height="80" as="geometry" />
        </mxCell>
        <mxCell id="7oq_9oslYy9KRRlgHnhk-22" value="No" style="text;html=1;align=center;verticalAlign=middle;resizable=0;points=[];autosize=1;strokeColor=none;fillColor=none;" vertex="1" parent="WIyWlLk6GJQsqaUBKTNV-1">
          <mxGeometry x="134" y="300" width="40" height="30" as="geometry" />
        </mxCell>
        <mxCell id="7oq_9oslYy9KRRlgHnhk-27" style="edgeStyle=orthogonalEdgeStyle;rounded=0;orthogonalLoop=1;jettySize=auto;html=1;entryX=0;entryY=0.5;entryDx=0;entryDy=0;" edge="1" parent="WIyWlLk6GJQsqaUBKTNV-1" source="7oq_9oslYy9KRRlgHnhk-26" target="WIyWlLk6GJQsqaUBKTNV-3">
          <mxGeometry relative="1" as="geometry" />
        </mxCell>
        <mxCell id="7oq_9oslYy9KRRlgHnhk-26" value="Aviso!&lt;br&gt;Ciudad no encontrada" style="rounded=1;whiteSpace=wrap;html=1;" vertex="1" parent="WIyWlLk6GJQsqaUBKTNV-1">
          <mxGeometry y="110" width="90" height="60" as="geometry" />
        </mxCell>
        <mxCell id="7oq_9oslYy9KRRlgHnhk-28" value="Si" style="text;html=1;align=center;verticalAlign=middle;resizable=0;points=[];autosize=1;strokeColor=none;fillColor=none;" vertex="1" parent="WIyWlLk6GJQsqaUBKTNV-1">
          <mxGeometry x="30" y="300" width="30" height="30" as="geometry" />
        </mxCell>
        <mxCell id="7oq_9oslYy9KRRlgHnhk-29" value="1" style="ellipse;whiteSpace=wrap;html=1;aspect=fixed;fillColor=#f8cecc;strokeColor=#b85450;" vertex="1" parent="WIyWlLk6GJQsqaUBKTNV-1">
          <mxGeometry x="269" y="70" width="40" height="40" as="geometry" />
        </mxCell>
        <mxCell id="7oq_9oslYy9KRRlgHnhk-32" style="edgeStyle=orthogonalEdgeStyle;rounded=0;orthogonalLoop=1;jettySize=auto;html=1;entryX=0.5;entryY=1;entryDx=0;entryDy=0;" edge="1" parent="WIyWlLk6GJQsqaUBKTNV-1" source="7oq_9oslYy9KRRlgHnhk-30" target="7oq_9oslYy9KRRlgHnhk-4">
          <mxGeometry relative="1" as="geometry" />
        </mxCell>
        <mxCell id="7oq_9oslYy9KRRlgHnhk-35" value="" style="edgeStyle=orthogonalEdgeStyle;rounded=0;orthogonalLoop=1;jettySize=auto;html=1;" edge="1" parent="WIyWlLk6GJQsqaUBKTNV-1" source="7oq_9oslYy9KRRlgHnhk-30">
          <mxGeometry relative="1" as="geometry">
            <mxPoint x="354" y="420" as="targetPoint" />
          </mxGeometry>
        </mxCell>
        <mxCell id="7oq_9oslYy9KRRlgHnhk-30" value="Ciudad Creada?" style="rhombus;whiteSpace=wrap;html=1;rounded=1;glass=0;strokeWidth=1;shadow=0;" vertex="1" parent="WIyWlLk6GJQsqaUBKTNV-1">
          <mxGeometry x="314" y="290" width="80" height="80" as="geometry" />
        </mxCell>
        <mxCell id="7oq_9oslYy9KRRlgHnhk-33" value="Si" style="text;html=1;align=center;verticalAlign=middle;resizable=0;points=[];autosize=1;strokeColor=none;fillColor=none;" vertex="1" parent="WIyWlLk6GJQsqaUBKTNV-1">
          <mxGeometry x="345" y="258" width="30" height="30" as="geometry" />
        </mxCell>
        <mxCell id="7oq_9oslYy9KRRlgHnhk-36" value="No" style="text;html=1;align=center;verticalAlign=middle;resizable=0;points=[];autosize=1;strokeColor=none;fillColor=none;" vertex="1" parent="WIyWlLk6GJQsqaUBKTNV-1">
          <mxGeometry x="345" y="378" width="40" height="30" as="geometry" />
        </mxCell>
        <mxCell id="7oq_9oslYy9KRRlgHnhk-39" value="" style="edgeStyle=orthogonalEdgeStyle;rounded=0;orthogonalLoop=1;jettySize=auto;html=1;" edge="1" parent="WIyWlLk6GJQsqaUBKTNV-1" source="7oq_9oslYy9KRRlgHnhk-37" target="7oq_9oslYy9KRRlgHnhk-38">
          <mxGeometry relative="1" as="geometry" />
        </mxCell>
        <mxCell id="7oq_9oslYy9KRRlgHnhk-37" value="Aviso de ERROR" style="rounded=1;whiteSpace=wrap;html=1;" vertex="1" parent="WIyWlLk6GJQsqaUBKTNV-1">
          <mxGeometry x="294" y="408" width="120" height="40" as="geometry" />
        </mxCell>
        <mxCell id="7oq_9oslYy9KRRlgHnhk-38" value="1" style="ellipse;whiteSpace=wrap;html=1;rounded=1;fillColor=#f8cecc;strokeColor=#b85450;" vertex="1" parent="WIyWlLk6GJQsqaUBKTNV-1">
          <mxGeometry x="332" y="470" width="44" height="40" as="geometry" />
        </mxCell>
      </root>
    </mxGraphModel>
  </diagram>
</mxfile>
